<svg xmlns="http://www.w3.org/2000/svg" width="640" height="160" viewBox="0 0 640 160"><path fill="#F5E4D0" stroke="#F5E4D0" d="M356.49 120.98l1.56-1.56s-7.8-2.53-9.6-8.26c-.96-3.27 17.18-3.35 17.18-3.35v-2.01h4.24v-2.23h6.92l-10.71-7.59 12.05-9.82-3.13-2.68 6.03-8.26h-2.23l4.02-5.8h-2.68l4.24-5.58-4.24 1.12v-2.9l-5.58 3.35-.22-2.23-5.8 4.02-2.12-3.57-8.81 8.03-3.12-3.12s-11.37 14.95-16.29 13.84c-1.03-6.62 10.04-19.19 10.04-19.19l-1.78-1.11 3.57-4.69h-2.01s3.13-3.49 4.47-10.71c-9.81 7.88-14.28 5.58-14.28 5.58V41.32l-1.56 1.12 1.79-4.68h-1.78l1.79-4.91-8.02 2.75-2.02-9.22-2.01 1.34-2.23-5.58-1.12 1.79-3.79-7.14-4.46 8.26-1.12-1.56v5.58l-4.02-2.01v8.03s-7.87.79-8.93-2.68l1.56 5.13-1.56-.67 1.12 4.02h-2.23c2.46 2.61 1.12 10.71 1.12 10.71s-3.27 4.09-14.73-5.13l2.9 6.25h-1.56l3.13 4.24h-2.01l3.57 5.36h-2.01s7.81 5.88 9.82 19.41c-5.13 1.11-15.62-13.16-15.62-13.16l-3.12 3.12-10.04-7.81-1.56 4.02-5.13-4.69v2.9l-5.8-4.24v2.46l-4.91-.89 4.69 5.58-2.9-.22 4.46 6.25h-2.01l6.02 8.26-3.57 2.68 11.83 10.04-9.6 7.14h6.25l-.67 2.23h5.36l-1.34 2.68s17.86-.52 17.4 3.57c-.52 4.61-9.59 7.59-9.59 7.59l2.01 2.23-6.25 6.25 14.51-2.23-.45 4.02 11.16-6.69.67 3.57s12.13-8.55 16.51-11.6c.9 6.25-.81 23.02-1.99 30.9 1.26.15 1.26.15 3.11 0-.74-9.89 1.64-25.1 0-31.35 11.01 8.18 16.74 12.5 16.74 12.5l1.12-4.46 10.71 7.14v-3.57l14.28 2.01-5.64-6.98z"/><path fill="none" stroke="#F5E4D0" stroke-width="8.93" stroke-miterlimit="10" d="M388.11 80.31c0 38.16-30.94 69.11-69.11 69.11s-69.11-30.94-69.11-69.11S280.83 11.2 319 11.2c38.17.01 69.11 30.95 69.11 69.11z"/><path fill="#F5E4D0" stroke="#F5E4D0" d="M577.29 128.12c-8.2-7.69-18.59-18.6-35.1-20.09-13.36-1.21-31.22 15.23-38.53 17.63 4.22-4.13 6.45-8.91 6.45-15.49 0-12.49-9.53-22.63-21.29-22.63-4.37 0-9.1 1.21-11.29 4.38-12.71-8.14-28.03-14.11-44.37-13.76-37.49.79-44.64 23.31-67.11 47.33-13.74 14.69-16.25 13-30.78 22 18.28.31 32.29-10.23 38.1-19.89 5.18.3 30.33 1.65 30.55 14.8.17 10.22-16.58 6.02-16.58 6.02s18.68 8.26 18.31-7.55c-.31-13.05-27.53-15.95-27.53-15.95 8.57-11.86 14.58-18.14 30.11-18.7 27.39.25 41.89 24.98 79.68 26.88 24.03 1.21 39.52-23.28 53.58-21.94 18.38 1.75 27.73 14.67 36.82 22.87 4.55 4.12 27.86 32.02 51.8 12.61-24.48 13.28-37.9-4.53-52.82-18.52zm-92.31 1.11c-3.91-.3-10.1-.16-32.65-11.05 0 0-31.74-18.97-44.92-18.19-9 .53-13.7 3.55-19.47 5.9 10.19-14.02 25.77-23.3 45.38-23.63 15.35-.26 30.15 4.2 43.32 11.66-.96 3.28.22 8 5.31 14.65-3.73-5.87-4.45-10.37-3.36-13.52 7.88 4.7 15.15 10.46 21.52 16.95-5.39-6.7-12.42-13.25-20.62-18.78 1.7-2.42 4.81-3.63 8.39-3.63 11.03 0 21.08 9.96 18.42 20.82-3.72 15.12-12.47 18.41-21.32 18.82zM8.84 146.64c23.95 19.41 47.24-8.49 51.8-12.61 9.08-8.2 18.43-21.12 36.82-22.87 14.06-1.34 29.55 23.15 53.58 21.94 37.79-1.9 52.29-26.63 79.68-26.88 15.52.56 21.53 6.84 30.1 18.7 0 0-27.22 2.9-27.53 15.95-.38 15.81 18.31 7.55 18.31 7.55s-16.75 4.19-16.59-6.02c.22-13.15 22.42-14.5 27.6-14.8 5.81 9.66 22.78 20.42 41.06 20.11-14.53-8.99-17.03-7.53-30.78-22.22-22.48-24.02-29.62-46.54-67.11-47.33-16.34-.35-31.66 5.63-44.37 13.77-2.19-3.17-6.92-4.38-11.29-4.38-11.76 0-21.29 10.13-21.29 22.63 0 6.58 2.23 11.36 6.45 15.49-7.3-2.4-25.16-18.84-38.53-17.63-16.51 1.48-26.9 12.4-35.1 20.09-14.92 13.98-28.34 31.79-52.81 18.51zm123.81-36.26c-2.66-10.86 7.39-20.82 18.42-20.82 3.57 0 6.68 1.22 8.39 3.63-8.2 5.53-15.23 12.08-20.62 18.78 6.38-6.48 13.64-12.25 21.52-16.95 1.09 3.15.37 7.65-3.36 13.52 5.09-6.65 6.27-11.37 5.31-14.65 13.17-7.46 27.97-11.92 43.32-11.66 19.61.33 35.19 9.61 45.38 23.64-5.77-2.35-10.47-5.37-19.47-5.9-13.18-.77-44.92 18.2-44.92 18.2-22.55 10.89-28.74 10.75-32.65 11.05-8.86-.4-17.62-3.69-21.32-18.84z"/><path fill="#F5E4D0" stroke="#F5E4D0" d="M432.77 72.72l.31-.64s-2.65.07-3.82-1.48c-.64-.9 4.87-2.88 4.87-2.88l-.22-.61 1.3-.46-.24-.68 2.1-.75-4.09-1.15 2.61-4.3-1.24-.48.94-3.17-.68.24.6-2.2-.81.29.69-2.16-1.17.8-.32-.88-1.34 1.63-.31-.66-1.33 1.85-1.03-.86-1.82 3.4-1.29-.61s-1.84 5.79-3.46 5.98c-1.04-1.91.98-6.94.98-6.94l-.67-.14.58-1.82-.61.22s.57-1.4.2-3.75c-2.13 3.46-3.75 3.25-3.75 3.25l-1.19-3.33-.35.5.03-1.62-.54.2.01-1.69-2.15 1.71-1.61-2.59-.47.62-1.28-1.46-.15.67-1.93-1.77-.46 3-.51-.36.61 1.7-1.45-.18.88 2.45s-2.31 1.09-3.01.15l1.04 1.4-.55-.03.78 1.1-.69.24c1.04.53 1.5 3.15 1.5 3.15s-.55 1.6-5.04.03l1.56 1.59-.48.17 1.41.95-.61.22 1.67 1.25-.61.22s3.02.94 5.1 4.85c-1.44.9-6.19-2.32-6.19-2.32l-.61 1.29-3.92-1.29-.04 1.39-2.06-.87.31.89-2.23-.67.26.75-1.59.26 2.03 1.19-.91.24 2.04 1.42-.61.22 2.73 1.87-.8 1.2 4.69 1.78-2.15 3.22 1.9-.68.04.75 1.63-.58-.12.96s5.39-2.1 5.7-.8c.34 1.46-2.11 3.36-2.11 3.36l.85.46-1.23 2.58 4.18-2.25.3 1.27 2.68-3.25.59 1.02s2.77-3.92 3.77-5.33c.95 1.81 2.04 6.52 2.53 9.06.4-.09.4-.09.95-.34-1.3-2.93-2.01-7.25-3.19-8.98 4.24 1.3 6.45 2 6.45 2l-.15-1.48 4.05 1.01-.39-1.09 4.56-.93-2.43-1.51zM476.51 114.04l.51-.28s-1.78-1.19-1.82-2.76c-.01-.89 4.55.39 4.55.39l.14-.5 1.07.3.15-.56 1.74.5-2.14-2.67 3.72-1.6-.59-.89 2.09-1.64-.56-.16 1.43-1.16-.67-.19 1.46-1.1-1.14-.02.2-.73-1.64.44.11-.58-1.74.59-.28-1.04-2.78 1.39-.56-1.01s-3.92 2.94-5.07 2.31c.21-1.73 3.89-4.1 3.89-4.1l-.36-.41 1.23-.92-.51-.14s1.04-.65 1.89-2.37c-3.02 1.28-3.98.38-3.98.38l.78-2.74-.47.17.78-1.05-.45-.13.8-1.1-2.21.12.15-2.46-.6.2-.16-1.56-.4.37-.45-2.06-1.71 1.75-.16-.47-.4 1.4-.86-.79-.58 2.02s-2.03-.36-2.05-1.31l.02 1.4-.34-.28-.01 1.09-.56-.16c.42.83-.48 2.76-.48 2.76s-1.11.79-3.33-2.33l.28 1.77-.39-.11.48 1.28-.5-.14.52 1.6-.5-.15s1.54 2.03 1.08 5.57c-1.37-.09-2.99-4.41-2.99-4.41l-1 .56-1.96-2.67-.68.9-.95-1.54-.21.73-1.15-1.48-.18.62-1.17-.57.78 1.73-.71-.26.67 1.89-.5-.15.93 2.5-1.09.42 2.25 3.36-2.92 1.11 1.57.44-.33.51 1.34.38-.52.57s4.51 1.15 4.11 2.14c-.45 1.12-2.95 1.22-2.95 1.22l.35.7-2.02 1.12 3.81.48-.4.98 3.27-.89-.09.95s3.65-1.28 4.97-1.73c-.22 1.63-1.71 5.24-2.57 7.13.3.13.3.13.78.23.52-2.53 2.07-5.71 2.1-7.39 2.18 2.84 3.31 4.33 3.31 4.33l.6-1.04 2.18 2.56.25-.9 3.44 1.52-.94-2.18zM425.56 113.68l-.59.43s2.4 1.23 2.67 3.18c.14 1.11-5.73.18-5.73.18l-.1.65-1.37-.22-.12.72-2.24-.36 3.07 3.02-4.41 2.54.87 1.03-2.38 2.35.72.12-1.6 1.66.87.14-1.66 1.58 1.42-.14-.15.94 1.98-.79-.05.73 2.09-.99.49 1.27 3.27-2.13.85 1.17s4.47-4.23 5.99-3.61c-.01 2.2-4.26 5.68-4.26 5.68l.53.45-1.4 1.33.65.11s-1.19.97-2.01 3.23c3.59-2.03 4.91-1.05 4.91-1.05l-.58 3.54.56-.28-.82 1.42.57.09-.83 1.49 2.74-.46.16 3.09.72-.33.43 1.92.45-.51.85 2.51 1.88-2.44.28.57.3-1.8 1.19.86.43-2.59s2.59.16 2.74 1.33l-.23-1.74.47.3-.15-1.36.72.11c-.65-.97.21-3.52.21-3.52s1.27-1.15 4.49 2.44l-.61-2.18.51.09-.78-1.54.65.11-.87-1.92.65.11s-2.22-2.32-2.16-6.8c1.72-.09 4.36 5.08 4.36 5.08l1.18-.84 2.83 3.05.72-1.22 1.41 1.79.15-.94 1.66 1.68.12-.79 1.54.54-1.22-2.05.92.23-1.1-2.25.65.1-1.51-2.99 1.3-.68-3.29-3.87 3.48-1.8-2.02-.33.34-.69-1.73-.28.58-.8s-5.81-.77-5.44-2.07c.41-1.46 3.5-1.94 3.5-1.94l-.53-.83 2.35-1.69-4.81-.04.36-1.28-3.96 1.57-.02-1.19s-4.37 2.13-5.95 2.89c.04-2.07 1.37-6.79 2.17-9.28-.4-.11-.4-.11-1-.16-.28 3.24-1.75 7.42-1.55 9.53-3.13-3.23-4.76-4.93-4.76-4.93l-.59 1.39-3.09-2.87-.19 1.16-4.51-1.4 1.37 2.47zM543.25 118.29l-.42.5s2.37.56 3.04 2.22c.37.94-5.01 1.41-5.01 1.41l.05.6-1.26.11.06.66-2.05.17 3.36 1.99-3.33 3.21 1 .72-1.59 2.6.66-.06-1.05 1.82.8-.07-1.13 1.76 1.23-.43.07.86 1.57-1.13.12.66 1.62-1.33.72 1.01 2.42-2.6 1 .85s3.01-4.71 4.49-4.5c.47 1.94-2.5 5.94-2.5 5.94l.56.29-.94 1.47.59-.05s-.84 1.12-1.06 3.28c2.72-2.58 4.1-2 4.1-2l.28 3.24.43-.36-.41 1.43.53-.04-.41 1.5 2.31-1.01.83 2.68.56-.44.8 1.6.29-.56 1.3 2.03 1.12-2.56.37.44-.14-1.65 1.24.5-.19-2.38s2.31-.43 2.71.57l-.59-1.48.48.16-.43-1.16.67-.05c-.8-.71-.59-3.15-.59-3.15s.86-1.29 4.49 1.16l-1.02-1.78.46-.04-1.03-1.18.6-.05-1.19-1.5.6-.04s-2.46-1.55-3.39-5.51c1.5-.46 4.96 3.52 4.96 3.52l.85-1 3.17 2.07.37-1.23 1.63 1.26-.07-.86 1.82 1.12-.06-.73 1.47.15-1.52-1.54h.86l-1.47-1.74.59-.05-1.99-2.3 1-.89-3.75-2.69 2.67-2.35-1.85.15.14-.68-1.59.13.33-.82s-5.28.59-5.24-.63c.04-1.38 2.66-2.48 2.66-2.48l-.65-.61 1.7-2.01-4.24 1.02.03-1.2-3.14 2.26-.29-1.04s-3.38 2.84-4.6 3.85c-.42-1.83-.28-6.28-.12-8.65-.38-.01-.38-.01-.92.08.46 2.91.08 6.92.73 8.73-3.46-2.16-5.26-3.29-5.26-3.29l-.22 1.34-3.35-1.85.09 1.06-4.28-.24 1.74 1.81zM203.9 72.72l-.31-.64s2.65.07 3.82-1.48c.65-.9-4.87-2.88-4.87-2.88l.22-.61-1.3-.46.24-.68-2.1-.75 4.09-1.15-2.61-4.3 1.25-.48-.94-3.17.68.24-.6-2.2.82.29-.69-2.16 1.17.8.31-.88 1.34 1.63.31-.66 1.34 1.85 1.03-.86 1.82 3.4 1.29-.61s1.85 5.79 3.46 5.98c1.03-1.91-.98-6.94-.98-6.94l.67-.14-.58-1.82.62.22s-.57-1.4-.2-3.75c2.13 3.46 3.75 3.25 3.75 3.25l1.19-3.33.35.5-.03-1.62.54.2-.01-1.69 2.15 1.71 1.61-2.59.47.62 1.28-1.46.15.67 1.93-1.77.47 3 .51-.36-.61 1.7 1.45-.18-.87 2.45s2.31 1.09 3.01.15l-1.04 1.4.55-.03-.78 1.1.68.24c-1.03.53-1.5 3.15-1.5 3.15s.55 1.6 5.05.03l-1.56 1.59.48.17-1.41.95.61.22-1.67 1.25.61.22s-3.02.94-5.1 4.85c1.44.9 6.19-2.32 6.19-2.32l.61 1.29 3.92-1.29.04 1.39 2.07-.87-.31.89 2.23-.67-.26.75 1.59.26-2.03 1.19.91.24-2.04 1.42.61.22-2.73 1.87.8 1.2-4.7 1.78 2.15 3.22-1.9-.68-.04.75-1.63-.58.12.96s-5.39-2.1-5.7-.8c-.34 1.46 2.11 3.36 2.11 3.36l-.85.46 1.23 2.58-4.18-2.25-.3 1.27-2.67-3.25-.59 1.02s-2.77-3.92-3.77-5.33c-.95 1.81-2.04 6.52-2.53 9.06-.4-.09-.4-.09-.95-.34 1.3-2.93 2.01-7.25 3.19-8.98-4.24 1.3-6.45 2-6.45 2l.15-1.48-4.04 1.01.39-1.09-4.56-.93 2.36-1.51zM160.15 114.04l-.5-.28s1.78-1.19 1.82-2.76c.01-.89-4.55.39-4.55.39l-.14-.5-1.07.3-.15-.56-1.73.5 2.14-2.67-3.72-1.6.59-.89-2.1-1.64.56-.16-1.42-1.16.67-.19-1.46-1.1 1.14-.02-.2-.73 1.64.44-.11-.58 1.74.59.28-1.04 2.79 1.39.56-1.01s3.92 2.94 5.07 2.31c-.21-1.73-3.89-4.1-3.89-4.1l.36-.41-1.23-.92.51-.14s-1.04-.65-1.89-2.37c3.02 1.28 3.99.38 3.99.38l-.78-2.74.47.17-.78-1.05.45-.13-.8-1.1 2.21.12-.15-2.46.6.2.17-1.56.4.37.45-2.06 1.71 1.75.16-.47.4 1.4.86-.79.58 2.02s2.03-.36 2.05-1.31l-.02 1.4.34-.28.01 1.09.56-.16c-.42.83.48 2.76.48 2.76s1.11.79 3.33-2.33l-.28 1.77.39-.11-.48 1.28.5-.14-.51 1.6.5-.15s-1.54 2.03-1.08 5.57c1.37-.09 2.99-4.41 2.99-4.41l1 .56 1.96-2.67.68.9.95-1.54.21.73 1.15-1.48.18.62 1.17-.57-.78 1.73.71-.26-.67 1.89.5-.15-.93 2.5 1.09.42-2.25 3.36 2.92 1.11-1.57.44.33.51-1.34.38.53.57s-4.51 1.15-4.11 2.14c.46 1.12 2.95 1.22 2.95 1.22l-.35.7 2.02 1.12-3.8.48.4.98-3.27-.89.09.95s-3.65-1.28-4.96-1.73c.22 1.63 1.71 5.24 2.57 7.13-.3.13-.3.13-.78.23-.52-2.53-2.07-5.71-2.1-7.39-2.18 2.84-3.3 4.33-3.3 4.33l-.6-1.04-2.17 2.56-.25-.9-3.44 1.52.83-2.18zM211.1 113.68l.59.43s-2.39 1.23-2.67 3.18c-.14 1.11 5.73.18 5.73.18l.1.65 1.37-.22.12.72 2.24-.36-3.06 3.02 4.41 2.54-.87 1.03 2.38 2.35-.72.12 1.6 1.66-.86.14 1.66 1.58-1.42-.14.15.94-1.98-.79.05.73-2.09-.99-.5 1.27-3.27-2.13-.85 1.17s-4.47-4.23-5.99-3.61c.01 2.2 4.26 5.68 4.26 5.68l-.52.45 1.4 1.33-.65.11s1.2.97 2.01 3.23c-3.59-2.03-4.91-1.05-4.91-1.05l.57 3.54-.56-.28.82 1.42-.57.09.83 1.49-2.74-.46-.16 3.09-.72-.33-.43 1.92-.45-.51-.85 2.51-1.87-2.44-.28.57-.3-1.8-1.19.86-.42-2.59s-2.59.16-2.74 1.33l.23-1.74-.47.3.15-1.36-.72.11c.65-.97-.21-3.52-.21-3.52s-1.27-1.15-4.49 2.44l.61-2.18-.5.09.79-1.54-.65.11.88-1.92-.65.11s2.22-2.32 2.15-6.8c-1.72-.09-4.36 5.08-4.36 5.08l-1.18-.84-2.83 3.05-.72-1.22-1.41 1.79-.15-.94-1.66 1.68-.12-.79-1.54.54 1.22-2.05-.92.23 1.11-2.25-.65.1 1.52-2.99-1.3-.68 3.29-3.87-3.48-1.8 2.02-.33-.34-.69 1.73-.28-.58-.8s5.8-.77 5.44-2.07c-.41-1.46-3.5-1.94-3.5-1.94l.53-.83-2.35-1.69 4.81-.04-.36-1.28 3.96 1.57.02-1.19s4.37 2.13 5.95 2.89c-.04-2.07-1.37-6.79-2.17-9.28.4-.11.4-.11 1-.16.29 3.24 1.75 7.42 1.55 9.53 3.13-3.23 4.76-4.93 4.76-4.93l.6 1.39 3.09-2.87.19 1.16 4.51-1.4-1.45 2.47zM93.41 118.29l.42.5s-2.37.56-3.04 2.22c-.37.94 5.01 1.41 5.01 1.41l-.05.6 1.26.11-.05.66 2.05.17-3.36 1.99 3.34 3.21-1 .72 1.59 2.6-.66-.06 1.05 1.82-.8-.07 1.13 1.76-1.23-.43-.07.86-1.57-1.13-.12.66-1.62-1.33-.71 1.01-2.42-2.6-1 .85s-3.01-4.71-4.49-4.5c-.47 1.94 2.5 5.94 2.5 5.94l-.56.29.95 1.47-.59-.05s.84 1.12 1.06 3.28c-2.72-2.58-4.1-2-4.1-2l-.28 3.24-.43-.36.41 1.43-.53-.04.41 1.5-2.31-1.01-.83 2.68-.56-.44-.8 1.6-.29-.56-1.3 2.03-1.12-2.56-.37.44.14-1.65-1.24.5.2-2.38s-2.31-.43-2.71.57l.59-1.48-.48.16.44-1.16-.67-.05c.79-.71.59-3.15.59-3.15s-.86-1.29-4.49 1.16l1.01-1.78-.46-.04 1.03-1.18-.6-.05 1.19-1.5-.6-.04s2.46-1.55 3.39-5.51c-1.5-.46-4.95 3.52-4.95 3.52l-.85-1-3.17 2.07-.36-1.23-1.64 1.26.07-.86-1.82 1.12.06-.73-1.47.15 1.52-1.54h-.86l1.48-1.74-.6-.05 1.99-2.3-1-.89 3.76-2.69-2.67-2.35 1.85.15-.14-.68 1.59.13-.33-.82s5.28.59 5.24-.63c-.04-1.38-2.66-2.48-2.66-2.48l.65-.61-1.7-2.01 4.24 1.02-.03-1.2 3.15 2.26.29-1.04s3.38 2.84 4.6 3.85c.42-1.83.28-6.28.13-8.65.38-.01.38-.01.92.08-.46 2.91-.08 6.92-.72 8.73 3.47-2.16 5.27-3.29 5.27-3.29l.22 1.34 3.35-1.85-.09 1.06 4.29-.24-1.86 1.81z"/></svg>