<svg xmlns="http://www.w3.org/2000/svg" xmlns:xlink="http://www.w3.org/1999/xlink" version="1.1" id="Layer_1" x="0" y="0" width="640" height="160" viewBox="0 0 640 160" enable-background="new 0 0 640 160" xml:space="preserve">
  <path fill="#F5E4D0" stroke="#F5E4D0" d="M356.49 120.98l1.56-1.56c0 0-7.8-2.53-9.6-8.26 -0.96-3.27 17.18-3.35 17.18-3.35v-2.01h4.24v-2.23h6.92l-10.71-7.59 12.05-9.82 -3.13-2.68 6.03-8.26h-2.23l4.02-5.8h-2.68l4.24-5.58 -4.24 1.12v-2.9l-5.58 3.35 -0.22-2.23 -5.8 4.02 -2.12-3.57 -8.81 8.03 -3.12-3.12c0 0-11.37 14.95-16.29 13.84 -1.03-6.62 10.04-19.19 10.04-19.19l-1.78-1.11 3.57-4.69h-2.01c0 0 3.13-3.49 4.47-10.71 -9.81 7.88-14.28 5.58-14.28 5.58V41.32l-1.56 1.12 1.79-4.68h-1.78l1.79-4.91 -8.02 2.75 -2.02-9.22 -2.01 1.34 -2.23-5.58 -1.12 1.79 -3.79-7.14 -4.46 8.26 -1.12-1.56v5.58l-4.02-2.01v8.03c0 0-7.87 0.79-8.93-2.68 1.56 5.13 1.56 5.13 1.56 5.13l-1.56-0.67 1.12 4.02c0 0 0 0-2.23 0 2.46 2.61 1.12 10.71 1.12 10.71s-3.27 4.09-14.73-5.13c2.9 6.25 2.9 6.25 2.9 6.25h-1.56l3.13 4.24h-2.01l3.57 5.36h-2.01c0 0 7.81 5.88 9.82 19.41 -5.13 1.11-15.62-13.16-15.62-13.16l-3.12 3.12 -10.04-7.81 -1.56 4.02 -5.13-4.69v2.9l-5.8-4.24v2.46l-4.91-0.89 4.69 5.58 -2.9-0.22 4.46 6.25h-2.01l6.02 8.26 -3.57 2.68 11.83 10.04 -9.6 7.14h6.25l-0.67 2.23h5.36l-1.34 2.68c0 0 17.86-0.52 17.4 3.57 -0.52 4.61-9.59 7.59-9.59 7.59l2.01 2.23 -6.25 6.25 14.51-2.23 -0.45 4.02 11.16-6.69 0.67 3.57c0 0 12.13-8.55 16.51-11.6 0.9 6.25-0.81 23.02-1.99 30.9 1.26 0.15 1.26 0.15 3.11 0 -0.74-9.89 1.64-25.1 0-31.35 11.01 8.18 16.74 12.5 16.74 12.5l1.12-4.46 10.71 7.14v-3.57l14.28 2.01L356.49 120.98z"/>
  <path fill="none" stroke="#F5E4D0" stroke-width="8.93" stroke-miterlimit="10" d="M388.11 80.31c0 38.16-30.94 69.11-69.11 69.11 -38.17 0-69.11-30.94-69.11-69.11 0-38.17 30.94-69.11 69.11-69.11C357.17 11.21 388.11 42.15 388.11 80.31z"/>
  <path fill="#F5E4D0" stroke="#F5E4D0" d="M577.29 128.12c-8.2-7.69-18.59-18.6-35.1-20.09 -13.36-1.21-31.22 15.23-38.53 17.63 4.22-4.13 6.45-8.91 6.45-15.49 0-12.49-9.53-22.63-21.29-22.63 -4.37 0-9.1 1.21-11.29 4.38 -12.71-8.14-28.03-14.11-44.37-13.76 -37.49 0.79-44.64 23.31-67.11 47.33 -13.74 14.69-16.25 13-30.78 22 18.28 0.31 32.29-10.23 38.1-19.89 5.18 0.3 30.33 1.65 30.55 14.8 0.17 10.22-16.58 6.02-16.58 6.02s18.68 8.26 18.31-7.55c-0.31-13.05-27.53-15.95-27.53-15.95 8.57-11.86 14.58-18.14 30.11-18.7 27.39 0.25 41.89 24.98 79.68 26.88 24.03 1.21 39.52-23.28 53.58-21.94 18.38 1.75 27.73 14.67 36.82 22.87 4.55 4.12 27.86 32.02 51.8 12.61C605.63 159.92 592.21 142.11 577.29 128.12zM484.98 129.23c-3.91-0.3-10.1-0.16-32.65-11.05 0 0-31.74-18.97-44.92-18.19 -9 0.53-13.7 3.55-19.47 5.9 10.19-14.02 25.77-23.3 45.38-23.63 15.35-0.26 30.15 4.2 43.32 11.66 -0.96 3.28 0.22 8 5.31 14.65 -3.73-5.87-4.45-10.37-3.36-13.52 7.88 4.7 15.15 10.46 21.52 16.95 -5.39-6.7-12.42-13.25-20.62-18.78 1.7-2.42 4.81-3.63 8.39-3.63 11.03 0 21.08 9.96 18.42 20.82C502.58 125.53 493.83 128.82 484.98 129.23z"/>
  <path fill="#F5E4D0" stroke="#F5E4D0" d="M8.84 146.64c23.95 19.41 47.24-8.49 51.8-12.61 9.08-8.2 18.43-21.12 36.82-22.87 14.06-1.34 29.55 23.15 53.58 21.94 37.79-1.9 52.29-26.63 79.68-26.88 15.52 0.56 21.53 6.84 30.1 18.7 0 0-27.22 2.9-27.53 15.95 -0.38 15.81 18.31 7.55 18.31 7.55s-16.75 4.19-16.59-6.02c0.22-13.15 22.42-14.5 27.6-14.8 5.81 9.66 22.78 20.42 41.06 20.11 -14.53-8.99-17.03-7.53-30.78-22.22 -22.48-24.02-29.62-46.54-67.11-47.33 -16.34-0.35-31.66 5.63-44.37 13.77 -2.19-3.17-6.92-4.38-11.29-4.38 -11.76 0-21.29 10.13-21.29 22.63 0 6.58 2.23 11.36 6.45 15.49 -7.3-2.4-25.16-18.84-38.53-17.63 -16.51 1.48-26.9 12.4-35.1 20.09C46.73 142.11 33.31 159.92 8.84 146.64zM132.65 110.38c-2.66-10.86 7.39-20.82 18.42-20.82 3.57 0 6.68 1.22 8.39 3.63 -8.2 5.53-15.23 12.08-20.62 18.78 6.38-6.48 13.64-12.25 21.52-16.95 1.09 3.15 0.37 7.65-3.36 13.52 5.09-6.65 6.27-11.37 5.31-14.65 13.17-7.46 27.97-11.92 43.32-11.66 19.61 0.33 35.19 9.61 45.38 23.64 -5.77-2.35-10.47-5.37-19.47-5.9 -13.18-0.77-44.92 18.2-44.92 18.2 -22.55 10.89-28.74 10.75-32.65 11.05C145.11 128.82 136.35 125.53 132.65 110.38z"/>
  <path fill="#F5E4D0" stroke="#F5E4D0" d="M432.77 72.72l0.31-0.64c0 0-2.65 0.07-3.82-1.48 -0.64-0.9 4.87-2.88 4.87-2.88l-0.22-0.61 1.3-0.46 -0.24-0.68 2.1-0.75 -4.09-1.15 2.61-4.3 -1.24-0.48 0.94-3.17 -0.68 0.24 0.6-2.2 -0.81 0.29 0.69-2.16 -1.17 0.8 -0.32-0.88 -1.34 1.63 -0.31-0.66 -1.33 1.85 -1.03-0.86 -1.82 3.4 -1.29-0.61c0 0-1.84 5.79-3.46 5.98 -1.04-1.91 0.98-6.94 0.98-6.94l-0.67-0.14 0.58-1.82 -0.61 0.22c0 0 0.57-1.4 0.2-3.75 -2.13 3.46-3.75 3.25-3.75 3.25l-1.19-3.33 -0.35 0.5 0.03-1.62 -0.54 0.2 0.01-1.69 -2.15 1.71 -1.61-2.59 -0.47 0.62 -1.28-1.46 -0.15 0.67 -1.93-1.77 -0.46 3 -0.51-0.36 0.61 1.7 -1.45-0.18 0.88 2.45c0 0-2.31 1.09-3.01 0.15 1.04 1.4 1.04 1.4 1.04 1.4l-0.55-0.03 0.78 1.1c0 0 0 0-0.69 0.24 1.04 0.53 1.5 3.15 1.5 3.15s-0.55 1.6-5.04 0.03c1.56 1.59 1.56 1.59 1.56 1.59l-0.48 0.17 1.41 0.95 -0.61 0.22 1.67 1.25 -0.61 0.22c0 0 3.02 0.94 5.1 4.85 -1.44 0.9-6.19-2.32-6.19-2.32l-0.61 1.29 -3.92-1.29 -0.04 1.39 -2.06-0.87 0.31 0.89 -2.23-0.67 0.26 0.75 -1.59 0.26 2.03 1.19 -0.91 0.24 2.04 1.42 -0.61 0.22 2.73 1.87 -0.8 1.2 4.69 1.78 -2.15 3.22 1.9-0.68 0.04 0.75 1.63-0.58 -0.12 0.96c0 0 5.39-2.1 5.7-0.8 0.34 1.46-2.11 3.36-2.11 3.36l0.85 0.46 -1.23 2.58 4.18-2.25 0.3 1.27 2.68-3.25 0.59 1.02c0 0 2.77-3.92 3.77-5.33 0.95 1.81 2.04 6.52 2.53 9.06 0.4-0.09 0.4-0.09 0.95-0.34 -1.3-2.93-2.01-7.25-3.19-8.98 4.24 1.3 6.45 2 6.45 2l-0.15-1.48 4.05 1.01 -0.39-1.09 4.56-0.93L432.77 72.72z"/>
  <path fill="#F5E4D0" stroke="#F5E4D0" d="M476.51 114.04l0.51-0.28c0 0-1.78-1.19-1.82-2.76 -0.01-0.89 4.55 0.39 4.55 0.39l0.14-0.5 1.07 0.3 0.15-0.56 1.74 0.5 -2.14-2.67 3.72-1.6 -0.59-0.89 2.09-1.64 -0.56-0.16 1.43-1.16 -0.67-0.19 1.46-1.1 -1.14-0.02 0.2-0.73 -1.64 0.44 0.11-0.58 -1.74 0.59 -0.28-1.04 -2.78 1.39 -0.56-1.01c0 0-3.92 2.94-5.07 2.31 0.21-1.73 3.89-4.1 3.89-4.1l-0.36-0.41 1.23-0.92 -0.51-0.14c0 0 1.04-0.65 1.89-2.37 -3.02 1.28-3.98 0.38-3.98 0.38l0.78-2.74 -0.47 0.17 0.78-1.05 -0.45-0.13 0.8-1.1 -2.21 0.12 0.15-2.46 -0.6 0.2 -0.16-1.56 -0.4 0.37 -0.45-2.06 -1.71 1.75 -0.16-0.47 -0.4 1.4 -0.86-0.79 -0.58 2.02c0 0-2.03-0.36-2.05-1.31 0.02 1.4 0.02 1.4 0.02 1.4l-0.34-0.28 -0.01 1.09c0 0 0 0-0.56-0.16 0.42 0.83-0.48 2.76-0.48 2.76s-1.11 0.79-3.33-2.33c0.28 1.77 0.28 1.77 0.28 1.77l-0.39-0.11 0.48 1.28 -0.5-0.14 0.52 1.6 -0.5-0.15c0 0 1.54 2.03 1.08 5.57 -1.37-0.09-2.99-4.41-2.99-4.41l-1 0.56 -1.96-2.67 -0.68 0.9 -0.95-1.54 -0.21 0.73 -1.15-1.48 -0.18 0.62 -1.17-0.57 0.78 1.73 -0.71-0.26 0.67 1.89 -0.5-0.15 0.93 2.5 -1.09 0.42 2.25 3.36 -2.92 1.11 1.57 0.44 -0.33 0.51 1.34 0.38 -0.52 0.57c0 0 4.51 1.15 4.11 2.14 -0.45 1.12-2.95 1.22-2.95 1.22l0.35 0.7 -2.02 1.12 3.81 0.48 -0.4 0.98 3.27-0.89 -0.09 0.95c0 0 3.65-1.28 4.97-1.73 -0.22 1.63-1.71 5.24-2.57 7.13 0.3 0.13 0.3 0.13 0.78 0.23 0.52-2.53 2.07-5.71 2.1-7.39 2.18 2.84 3.31 4.33 3.31 4.33l0.6-1.04 2.18 2.56 0.25-0.9 3.44 1.52L476.51 114.04z"/>
  <path fill="#F5E4D0" stroke="#F5E4D0" d="M425.56 113.68l-0.59 0.43c0 0 2.4 1.23 2.67 3.18 0.14 1.11-5.73 0.18-5.73 0.18l-0.1 0.65 -1.37-0.22 -0.12 0.72 -2.24-0.36 3.07 3.02 -4.41 2.54 0.87 1.03 -2.38 2.35 0.72 0.12 -1.6 1.66 0.87 0.14 -1.66 1.58 1.42-0.14 -0.15 0.94 1.98-0.79 -0.05 0.73 2.09-0.99 0.49 1.27 3.27-2.13 0.85 1.17c0 0 4.47-4.23 5.99-3.61 -0.01 2.2-4.26 5.68-4.26 5.68l0.53 0.45 -1.4 1.33 0.65 0.11c0 0-1.19 0.97-2.01 3.23 3.59-2.03 4.91-1.05 4.91-1.05l-0.58 3.54 0.56-0.28 -0.82 1.42 0.57 0.09 -0.83 1.49 2.74-0.46 0.16 3.09 0.72-0.33 0.43 1.92 0.45-0.51 0.85 2.51 1.88-2.44 0.28 0.57 0.3-1.8 1.19 0.86 0.43-2.59c0 0 2.59 0.16 2.74 1.33 -0.23-1.74-0.23-1.74-0.23-1.74l0.47 0.3 -0.15-1.36c0 0 0 0 0.72 0.11 -0.65-0.97 0.21-3.52 0.21-3.52s1.27-1.15 4.49 2.44c-0.61-2.18-0.61-2.18-0.61-2.18l0.51 0.09 -0.78-1.54 0.65 0.11 -0.87-1.92 0.65 0.11c0 0-2.22-2.32-2.16-6.8 1.72-0.09 4.36 5.08 4.36 5.08l1.18-0.84 2.83 3.05 0.72-1.22 1.41 1.79 0.15-0.94 1.66 1.68 0.12-0.79 1.54 0.54 -1.22-2.05 0.92 0.23 -1.1-2.25 0.65 0.1 -1.51-2.99 1.3-0.68 -3.29-3.87 3.48-1.8 -2.02-0.33 0.34-0.69 -1.73-0.28 0.58-0.8c0 0-5.81-0.77-5.44-2.07 0.41-1.46 3.5-1.94 3.5-1.94l-0.53-0.83 2.35-1.69 -4.81-0.04 0.36-1.28 -3.96 1.57 -0.02-1.19c0 0-4.37 2.13-5.95 2.89 0.04-2.07 1.37-6.79 2.17-9.28 -0.4-0.11-0.4-0.11-1-0.16 -0.28 3.24-1.75 7.42-1.55 9.53 -3.13-3.23-4.76-4.93-4.76-4.93l-0.59 1.39 -3.09-2.87 -0.19 1.16 -4.51-1.4L425.56 113.68z"/>
  <path fill="#F5E4D0" stroke="#F5E4D0" d="M543.25 118.29l-0.42 0.5c0 0 2.37 0.56 3.04 2.22 0.37 0.94-5.01 1.41-5.01 1.41l0.05 0.6 -1.26 0.11 0.06 0.66 -2.05 0.17 3.36 1.99 -3.33 3.21 1 0.72 -1.59 2.6 0.66-0.06 -1.05 1.82 0.8-0.07 -1.13 1.76 1.23-0.43 0.07 0.86 1.57-1.13 0.12 0.66 1.62-1.33 0.72 1.01 2.42-2.6 1 0.85c0 0 3.01-4.71 4.49-4.5 0.47 1.94-2.5 5.94-2.5 5.94l0.56 0.29 -0.94 1.47 0.59-0.05c0 0-0.84 1.12-1.06 3.28 2.72-2.58 4.1-2 4.1-2l0.28 3.24 0.43-0.36 -0.41 1.43 0.53-0.04 -0.41 1.5 2.31-1.01 0.83 2.68 0.56-0.44 0.8 1.6 0.29-0.56 1.3 2.03 1.12-2.56 0.37 0.44 -0.14-1.65 1.24 0.5 -0.19-2.38c0 0 2.31-0.43 2.71 0.57 -0.59-1.48-0.59-1.48-0.59-1.48l0.48 0.16 -0.43-1.16c0 0 0 0 0.67-0.05 -0.8-0.71-0.59-3.15-0.59-3.15s0.86-1.29 4.49 1.16c-1.02-1.78-1.02-1.78-1.02-1.78l0.46-0.04 -1.03-1.18 0.6-0.05 -1.19-1.5 0.6-0.04c0 0-2.46-1.55-3.39-5.51 1.5-0.46 4.96 3.52 4.96 3.52l0.85-1 3.17 2.07 0.37-1.23 1.63 1.26 -0.07-0.86 1.82 1.12 -0.06-0.73 1.47 0.15 -1.52-1.54 0.86 0 -1.47-1.74 0.59-0.05 -1.99-2.3 1-0.89 -3.75-2.69 2.67-2.35 -1.85 0.15 0.14-0.68 -1.59 0.13 0.33-0.82c0 0-5.28 0.59-5.24-0.63 0.04-1.38 2.66-2.48 2.66-2.48l-0.65-0.61 1.7-2.01 -4.24 1.02 0.03-1.2 -3.14 2.26 -0.29-1.04c0 0-3.38 2.84-4.6 3.85 -0.42-1.83-0.28-6.28-0.12-8.65 -0.38-0.01-0.38-0.01-0.92 0.08 0.46 2.91 0.08 6.92 0.73 8.73 -3.46-2.16-5.26-3.29-5.26-3.29l-0.22 1.34 -3.35-1.85 0.09 1.06 -4.28-0.24L543.25 118.29z"/>
  <path fill="#F5E4D0" stroke="#F5E4D0" d="M203.9 72.72l-0.31-0.64c0 0 2.65 0.07 3.82-1.48 0.65-0.9-4.87-2.88-4.87-2.88l0.22-0.61 -1.3-0.46 0.24-0.68 -2.1-0.75 4.09-1.15 -2.61-4.3 1.25-0.48 -0.94-3.17 0.68 0.24 -0.6-2.2 0.82 0.29 -0.69-2.16 1.17 0.8 0.31-0.88 1.34 1.63 0.31-0.66 1.34 1.85 1.03-0.86 1.82 3.4 1.29-0.61c0 0 1.85 5.79 3.46 5.98 1.03-1.91-0.98-6.94-0.98-6.94l0.67-0.14 -0.58-1.82 0.62 0.22c0 0-0.57-1.4-0.2-3.75 2.13 3.46 3.75 3.25 3.75 3.25l1.19-3.33 0.35 0.5 -0.03-1.62 0.54 0.2 -0.01-1.69 2.15 1.71 1.61-2.59 0.47 0.62 1.28-1.46 0.15 0.67 1.93-1.77 0.47 3 0.51-0.36 -0.61 1.7 1.45-0.18 -0.87 2.45c0 0 2.31 1.09 3.01 0.15 -1.04 1.4-1.04 1.4-1.04 1.4l0.55-0.03 -0.78 1.1c0 0 0 0 0.68 0.24 -1.03 0.53-1.5 3.15-1.5 3.15s0.55 1.6 5.05 0.03c-1.56 1.59-1.56 1.59-1.56 1.59l0.48 0.17 -1.41 0.95 0.61 0.22 -1.67 1.25 0.61 0.22c0 0-3.02 0.94-5.1 4.85 1.44 0.9 6.19-2.32 6.19-2.32l0.61 1.29 3.92-1.29 0.04 1.39 2.07-0.87 -0.31 0.89 2.23-0.67 -0.26 0.75 1.59 0.26 -2.03 1.19 0.91 0.24 -2.04 1.42 0.61 0.22 -2.73 1.87 0.8 1.2 -4.7 1.78 2.15 3.22 -1.9-0.68 -0.04 0.75 -1.63-0.58 0.12 0.96c0 0-5.39-2.1-5.7-0.8 -0.34 1.46 2.11 3.36 2.11 3.36l-0.85 0.46 1.23 2.58 -4.18-2.25 -0.3 1.27 -2.67-3.25 -0.59 1.02c0 0-2.77-3.92-3.77-5.33 -0.95 1.81-2.04 6.52-2.53 9.06 -0.4-0.09-0.4-0.09-0.95-0.34 1.3-2.93 2.01-7.25 3.19-8.98 -4.24 1.3-6.45 2-6.45 2l0.15-1.48 -4.04 1.01 0.39-1.09 -4.56-0.93L203.9 72.72z"/>
  <path fill="#F5E4D0" stroke="#F5E4D0" d="M160.15 114.04l-0.5-0.28c0 0 1.78-1.19 1.82-2.76 0.01-0.89-4.55 0.39-4.55 0.39l-0.14-0.5 -1.07 0.3 -0.15-0.56 -1.73 0.5 2.14-2.67 -3.72-1.6 0.59-0.89 -2.1-1.64 0.56-0.16 -1.42-1.16 0.67-0.19 -1.46-1.1 1.14-0.02 -0.2-0.73 1.64 0.44 -0.11-0.58 1.74 0.59 0.28-1.04 2.79 1.39 0.56-1.01c0 0 3.92 2.94 5.07 2.31 -0.21-1.73-3.89-4.1-3.89-4.1l0.36-0.41 -1.23-0.92 0.51-0.14c0 0-1.04-0.65-1.89-2.37 3.02 1.28 3.99 0.38 3.99 0.38l-0.78-2.74 0.47 0.17 -0.78-1.05 0.45-0.13 -0.8-1.1 2.21 0.12 -0.15-2.46 0.6 0.2 0.17-1.56 0.4 0.37 0.45-2.06 1.71 1.75 0.16-0.47 0.4 1.4 0.86-0.79 0.58 2.02c0 0 2.03-0.36 2.05-1.31 -0.02 1.4-0.02 1.4-0.02 1.4l0.34-0.28 0.01 1.09c0 0 0 0 0.56-0.16 -0.42 0.83 0.48 2.76 0.48 2.76s1.11 0.79 3.33-2.33c-0.28 1.77-0.28 1.77-0.28 1.77l0.39-0.11 -0.48 1.28 0.5-0.14 -0.51 1.6 0.5-0.15c0 0-1.54 2.03-1.08 5.57 1.37-0.09 2.99-4.41 2.99-4.41l1 0.56 1.96-2.67 0.68 0.9 0.95-1.54 0.21 0.73 1.15-1.48 0.18 0.62 1.17-0.57 -0.78 1.73 0.71-0.26 -0.67 1.89 0.5-0.15 -0.93 2.5 1.09 0.42 -2.25 3.36 2.92 1.11 -1.57 0.44 0.33 0.51 -1.34 0.38 0.53 0.57c0 0-4.51 1.15-4.11 2.14 0.46 1.12 2.95 1.22 2.95 1.22l-0.35 0.7 2.02 1.12 -3.8 0.48 0.4 0.98 -3.27-0.89 0.09 0.95c0 0-3.65-1.28-4.96-1.73 0.22 1.63 1.71 5.24 2.57 7.13 -0.3 0.13-0.3 0.13-0.78 0.23 -0.52-2.53-2.07-5.71-2.1-7.39 -2.18 2.84-3.3 4.33-3.3 4.33l-0.6-1.04 -2.17 2.56 -0.25-0.9 -3.44 1.52L160.15 114.04z"/>
  <path fill="#F5E4D0" stroke="#F5E4D0" d="M211.1 113.68l0.59 0.43c0 0-2.39 1.23-2.67 3.18 -0.14 1.11 5.73 0.18 5.73 0.18l0.1 0.65 1.37-0.22 0.12 0.72 2.24-0.36 -3.06 3.02 4.41 2.54 -0.87 1.03 2.38 2.35 -0.72 0.12 1.6 1.66 -0.86 0.14 1.66 1.58 -1.42-0.14 0.15 0.94 -1.98-0.79 0.05 0.73 -2.09-0.99 -0.5 1.27 -3.27-2.13 -0.85 1.17c0 0-4.47-4.23-5.99-3.61 0.01 2.2 4.26 5.68 4.26 5.68l-0.52 0.45 1.4 1.33 -0.65 0.11c0 0 1.2 0.97 2.01 3.23 -3.59-2.03-4.91-1.05-4.91-1.05l0.57 3.54 -0.56-0.28 0.82 1.42 -0.57 0.09 0.83 1.49 -2.74-0.46 -0.16 3.09 -0.72-0.33 -0.43 1.92 -0.45-0.51 -0.85 2.51 -1.87-2.44 -0.28 0.57 -0.3-1.8 -1.19 0.86 -0.42-2.59c0 0-2.59 0.16-2.74 1.33 0.23-1.74 0.23-1.74 0.23-1.74l-0.47 0.3 0.15-1.36c0 0 0 0-0.72 0.11 0.65-0.97-0.21-3.52-0.21-3.52s-1.27-1.15-4.49 2.44c0.61-2.18 0.61-2.18 0.61-2.18l-0.5 0.09 0.79-1.54 -0.65 0.11 0.88-1.92 -0.65 0.11c0 0 2.22-2.32 2.15-6.8 -1.72-0.09-4.36 5.08-4.36 5.08l-1.18-0.84 -2.83 3.05 -0.72-1.22 -1.41 1.79 -0.15-0.94 -1.66 1.68 -0.12-0.79 -1.54 0.54 1.22-2.05 -0.92 0.23 1.11-2.25 -0.65 0.1 1.52-2.99 -1.3-0.68 3.29-3.87 -3.48-1.8 2.02-0.33 -0.34-0.69 1.73-0.28 -0.58-0.8c0 0 5.8-0.77 5.44-2.07 -0.41-1.46-3.5-1.94-3.5-1.94l0.53-0.83 -2.35-1.69 4.81-0.04 -0.36-1.28 3.96 1.57 0.02-1.19c0 0 4.37 2.13 5.95 2.89 -0.04-2.07-1.37-6.79-2.17-9.28 0.4-0.11 0.4-0.11 1-0.16 0.29 3.24 1.75 7.42 1.55 9.53 3.13-3.23 4.76-4.93 4.76-4.93l0.6 1.39 3.09-2.87 0.19 1.16 4.51-1.4L211.1 113.68z"/>
  <path fill="#F5E4D0" stroke="#F5E4D0" d="M93.41 118.29l0.42 0.5c0 0-2.37 0.56-3.04 2.22 -0.37 0.94 5.01 1.41 5.01 1.41l-0.05 0.6 1.26 0.11 -0.05 0.66 2.05 0.17 -3.36 1.99 3.34 3.21 -1 0.72 1.59 2.6 -0.66-0.06 1.05 1.82 -0.8-0.07 1.13 1.76 -1.23-0.43 -0.07 0.86 -1.57-1.13 -0.12 0.66 -1.62-1.33 -0.71 1.01 -2.42-2.6 -1 0.85c0 0-3.01-4.71-4.49-4.5 -0.47 1.94 2.5 5.94 2.5 5.94l-0.56 0.29 0.95 1.47 -0.59-0.05c0 0 0.84 1.12 1.06 3.28 -2.72-2.58-4.1-2-4.1-2l-0.28 3.24 -0.43-0.36 0.41 1.43 -0.53-0.04 0.41 1.5 -2.31-1.01 -0.83 2.68 -0.56-0.44 -0.8 1.6 -0.29-0.56 -1.3 2.03 -1.12-2.56 -0.37 0.44 0.14-1.65 -1.24 0.5 0.2-2.38c0 0-2.31-0.43-2.71 0.57 0.59-1.48 0.59-1.48 0.59-1.48l-0.48 0.16 0.44-1.16c0 0 0 0-0.67-0.05 0.79-0.71 0.59-3.15 0.59-3.15s-0.86-1.29-4.49 1.16c1.01-1.78 1.01-1.78 1.01-1.78l-0.46-0.04 1.03-1.18 -0.6-0.05 1.19-1.5 -0.6-0.04c0 0 2.46-1.55 3.39-5.51 -1.5-0.46-4.95 3.52-4.95 3.52l-0.85-1 -3.17 2.07 -0.36-1.23 -1.64 1.26 0.07-0.86 -1.82 1.12 0.06-0.73 -1.47 0.15 1.52-1.54 -0.86 0 1.48-1.74 -0.6-0.05 1.99-2.3 -1-0.89 3.76-2.69 -2.67-2.35 1.85 0.15 -0.14-0.68 1.59 0.13 -0.33-0.82c0 0 5.28 0.59 5.24-0.63 -0.04-1.38-2.66-2.48-2.66-2.48l0.65-0.61 -1.7-2.01 4.24 1.02 -0.03-1.2 3.15 2.26 0.29-1.04c0 0 3.38 2.84 4.6 3.85 0.42-1.83 0.28-6.28 0.13-8.65 0.38-0.01 0.38-0.01 0.92 0.08 -0.46 2.91-0.08 6.92-0.72 8.73 3.47-2.16 5.27-3.29 5.27-3.29l0.22 1.34 3.35-1.85 -0.09 1.06 4.29-0.24L93.41 118.29z"/>
</svg>